<?xml version="1.0" encoding="utf-8"?>
<!-- Generator: Adobe Illustrator 16.0.4, SVG Export Plug-In . SVG Version: 6.00 Build 0)  -->
<!DOCTYPE svg PUBLIC "-//W3C//DTD SVG 1.1//EN" "http://www.w3.org/Graphics/SVG/1.1/DTD/svg11.dtd">
<svg version="1.1" id="Layer_1" xmlns="http://www.w3.org/2000/svg" xmlns:xlink="http://www.w3.org/1999/xlink" x="0px" y="0px"
	 width="128px" height="128px" viewBox="0 0 128 128" enable-background="new 0 0 128 128" xml:space="preserve">
<path fill="#F28A5C" d="M10.842,58.125V12.206h13.505l13.506,16.882l13.505-16.882h13.505v45.919H51.357V31.789L37.853,48.671
	L24.347,31.789v26.336H10.842z"/>
<path fill="#F28A5C" d="M10.691,86.625h13.504L31,95.211l20.508-23.889h13.505L31,114.793L10.691,86.625z"/>
<g>
	<path fill="#F28A5C" d="M108.508,80.471v25.641h-25.64V80.471H108.508 M116.508,72.471h-41.64v41.641h41.642V72.471H116.508z"/>
</g>
<g>
	<path fill="#F28A5C" d="M107.507,80.471v25.641h-25.64V80.471H107.507 M115.507,72.471h-41.64v41.641h41.642V72.471H115.507z"/>
</g>
<polygon fill="#F28A5C" points="95.251,58.125 74.993,35.841 88.497,35.841 88.497,12.206 102.003,12.206 102.003,35.841 
	115.509,35.841 "/>
</svg>
